# xmcd CD database file
# Copyright (C) 1995 Ti Kan
#
# Track frame offsets:
#	165
#	16147
#	37645
#	50187
#	67637
#	84335
#	102170
#	119712
#	146470
#	163872
#	188730
#
# Disc length: 2807 seconds
#
# Revision: 1
# Processed by: cddbd v1.4PL0 Copyright (c) Steve Scherf et al.
# Submitted via: NotifyCDPlayer 1.60beta16
#
DISCID=860af50b
DTITLE=Various  Artists - True Voices
DYEAR=1900
DGENRE=
TTITLE0=Changes (Phil Ochs) - Gene Clark
TTITLE1=Devil Eyes (Tim Buckley) - Jackie Lomax, Juke Logan
TTITLE2=The Lady Came from Baltimore (Tim Hardin) - John Stewart
TTITLE3=(Thank You) for Being There (Brian Jones) - Krysia Kristianne, Robin
TTITLE3=Williamson
TTITLE4=Simple Song of Freedom (Bobby Darin) - P. F. Sloan
TTITLE5=Which Will (Nick Drake) - Lucinda Williams
TTITLE6=To Love Someone (Del Shannon) - Pat Robinson
TTITLE7=At the End of the Day (Sandy Denny) - Susan Cowsill, Eric Johnson
TTITLE8=Loving Arms (Tom Jans) - Stephen McCarthy, Carla Olson
TTITLE9=Across the Great Divide (Kate Wolf) - Michael Nold
TTITLE10=The Dreamer (Sonny Criss) - Ed Black, Pieter Meijers, Brian Barnett
TTITLE10=, Ken Kuberik
EXTD=1990 Demon Records\nFiend CD165\nProduced by George Callins and Saul Da
EXTD=vis\nRecorded by David Benson
EXTT0=
EXTT1=
EXTT2=
EXTT3=
EXTT4=
EXTT5=
EXTT6=
EXTT7=
EXTT8=
EXTT9=
EXTT10=
PLAYORDER=
